<svg xmlns="http://www.w3.org/2000/svg">
  <defs>
    <symbol viewBox="0 0 32 32" id="icon-amazon-web-services">
      <path d="M6.584 9.01c-1.36 0-2.74.53-2.97.82-.06.12-.2 1.09.13 1.09.11 0 .16.02.48-.13 1.2-.47 1.96-.46 2.07-.46 1.35-.13 2.13.79 2.01 1.98v.7c-1.14-.27-1.79-.28-2.11-.28-1.66-.1-3.194.776-3.194 2.7 0 2.11 1.883 2.56 2.613 2.53 1.09.01 2.13-.48 2.82-1.33.55 1.23.9 1.15.91 1.15.1 0 .18-.04.26-.09l.57-.4c.1-.06.18-.16.19-.28-.01-.29-.53-.74-.49-1.75v-3.12a3.179 3.179 0 00-.799-2.35 3.42 3.42 0 00-2.49-.78zm19.373 0c-2 0-3.15 1.25-3.12 2.52 0 1.74 1.76 2.29 1.96 2.35 1.69.53 1.92.55 2.39.95.4.41.35 1.21-.24 1.56-.17.1-.9.54-2.55.2-.55-.11-.84-.24-1.29-.43-.12-.04-.4-.11-.4.26v.49c0 .23.14.44.35.54 1.05.53 2.31.55 2.58.55.04 0 2.34.001 3.11-1.55.158-.32.57-1.49-.2-2.49-.64-.75-1.19-.83-2.83-1.33-.14-.04-1.35-.35-1.34-1.2-.06-1.09 1.42-1.15 1.73-1.13 1.25-.02 1.87.45 2.21.48.15 0 .22-.09.22-.29v-.46a.487.487 0 00-.09-.31c-.4-.52-1.93-.71-2.49-.71zm-15.18.25c-.11.02-.19.13-.17.24.02.13.04.26.09.39l2.24 7.39c.05.24.21.5.56.46h.82c.5.05.57-.43.58-.48l1.47-6.16 1.49 6.17c.01.05.08.53.57.48h.83c.36.04.53-.22.58-.46 2.52-8.11 2.35-7.56 2.37-7.64.04-.42-.2-.39-.24-.38h-.89c-.45-.05-.54.36-.56.46l-1.66 6.41-1.5-6.41c-.07-.49-.47-.47-.57-.46h-.77c-.44-.04-.55.31-.58.46l-1.49 6.32-1.6-6.32c-.04-.2-.17-.51-.56-.47h-1.01zm-4.254 4.63c.72.01 1.342.12 1.772.22 0 .5.018.78-.092 1.23-.14.48-.759 1.35-2.219 1.37-.84.04-1.39-.62-1.34-1.37-.05-1.2 1.19-1.5 1.88-1.45zm22.518 6.112c-.933.013-2.035.222-2.871.809-.258.179-.213.427.074.394.94-.113 3.032-.367 3.406.111.375.478-.414 2.45-.763 3.332-.108.263.12.372.361.172 1.564-1.31 1.97-4.056 1.65-4.45-.16-.198-.924-.381-1.857-.368zm-27.824 1c-.218.03-.312.306-.084.525C5.05 25.201 10.226 27 15.973 27c4.099 0 8.857-1.337 12.142-3.857.543-.42.08-1.047-.476-.8-3.683 1.626-7.684 2.409-11.325 2.409-5.396 0-10.62-1.127-14.845-3.686a.39.39 0 00-.252-.064z"/>
    </symbol>
    <symbol viewBox="0 0 50 50" id="icon-docker">
      <path d="M20 9v5H10v5H5v5H1.125a.974.974 0 00-.969.813A11.73 11.73 0 000 26.75c0 .7.066 1.46.188 2.219 1.144-.274 3.242-.684 2.874-2.032 1.973 2.286 6.708 1.594 7.907.47 1.34 1.94 9.144 1.198 9.687-.313 1.68 1.968 6.887 1.968 8.563 0 .543 1.511 8.316 2.254 9.656.312.426.399 1.313.73 2.344.907.347-.66.668-1.325.968-2.032 6.352-.078 7.723-4.644 7.782-4.843.11-.383-.04-.778-.344-1.032-.105-.09-2.45-1.992-6.25-1.343-1.066-3.473-3.813-5.055-3.938-5.125a.991.991 0 00-1.124.093c-.102.082-2.465 2.086-2.094 6.188a7.371 7.371 0 00.781 2.75c-.82.457-2.23 1.031-4.5 1.031H32v-5h-5V9zm21.219 19.313c-.121.234-.278.46-.407.687h9.032c-1.086-.273-3.418-.64-3.032-2.063-1.277 1.477-3.703 1.696-5.593 1.375zm-.407.687H.188a15.645 15.645 0 001.5 4.5c5.43 1.277 11.128-.668 11.187-.688.523-.183 1.07.106 1.25.626.184.519-.074 1.101-.594 1.28-.191.067-3.625 1.22-7.844 1.22a21.13 21.13 0 01-2.593-.157C5.719 39.261 10.168 42 17 42c10.805 0 19.113-4.59 23.813-13zM.188 29c-.004-.016.003-.016 0-.031-.067.015-.13.015-.188.031zM22 11h3v3h-3zm-10 5h3v3h-3zm5 0h3v3h-3zm5 0h3v3h-3zM7 21h3v3H7zm5 0h3v3h-3zm5 0h3v3h-3zm5 0h3v3h-3zm5 0h3v3h-3zM16 31c.129 0 .262.02.375.063-.121.07-.219.19-.219.343 0 .227.18.438.407.438a.449.449 0 00.375-.219c.05.117.062.238.062.375 0 .55-.45 1-1 1s-1-.45-1-1 .45-1 1-1z"/>
    </symbol>
    <symbol viewBox="0 0 24 24" id="icon-external-mongodb-a-cross-platform-document-oriented-database-program-logo-bold-tal-revivo">
      <path d="M11.884 0l-.005.049v.013h-.001a.574.574 0 00-.004.039v.015h-.002l-.002.026v.026h-.003c-.001.008-.001.018-.003.025v.021h-.002c0 .007 0 .015-.002.021v.02h-.002l-.002.032v.002l-.009.05v.008h-.002l-.003.012v.017h-.003v.022h-.005v.018h-.005v.021h-.004v.019h-.005v.017h-.006v.014h-.004v.018h-.004v.014H11.8v.013h-.003v.015h-.004l-.001.004v.01h-.003l-.001.006v.006h-.002a.044.044 0 00-.002.01l-.01.021v.002a.03.03 0 00-.005.007v.008h-.004v.008h-.005v.008h-.003v.01h-.007v.014h-.004v.004h-.004v.008h-.004v.011h-.004v.008h-.006v.011h-.004v.008h-.005v.008h-.003v.01h-.006v.008h-.004v.006h-.004v.008h-.006V.76h-.004v.006h-.005v.008h-.004v.011h-.005v.004h-.003v.008h-.006v.004h-.004v.01h-.005v.004h-.004v.008h-.005v.006h-.003l-.002.004v.004h-.002l-.002.004v.001h-.001a.016.016 0 01-.004.007v.003h-.001l-.012.018v.001c-.002.002-.007.006-.009.01v.002h-.001l-.003.003v.003h-.002l-.003.003v.001h-.001l-.003.004v.004h-.003l-.002.002v.002h-.002c0 .002-.002.002-.002.003v.003h-.004l-.002.003V.92h-.003v.004h-.004V.93h-.004v.008h-.005V.93h-.005v.004h-.006V.94h-.005v.008h-.005v.004h-.004v.006h-.004v.004h-.004V.97h-.006v.004h-.004V.98h-.005v.004h-.004v.005h-.005v.01h-.002v.004h-.006v.005h-.004v.002h-.004v.004h-.005v.01h-.004v.004h-.005v.004h-.004v.006h-.005v.004h-.005v.004h-.004v.004h-.006v.01h-.004v.005h-.006v.004h-.004v.004h-.006v.006h-.004v.004h-.005v.007h-.004v.004h-.006V1.1h-.002v.004h-.004v.004h-.005v.004h-.004v.006h-.005v.004h-.003l-.001.002v.002h-.002l-.005.004-.004.003v.006h-.004v.005h-.004v.004h-.004v.004h-.003l-.003.003v.003h-.002l-.002.002v.003h-.002c-.005.006-.007.01-.014.016a.374.374 0 00-.052.042l-.022.017v.001h-.001l-.05.039v.001l-.076.062V1.34h-.002c-.058.047-.12.1-.19.159V1.5h-.001c-.173.148-.378.338-.608.568l-.019.019c-1.39 1.407-3.581 4.339-3.812 9.077-.02.392-.016.773.006 1.144v.009c.111 1.867.71 3.461 1.46 4.756v.001c.298.516.62.985.947 1.405v.001c1.126 1.455 2.276 2.317 2.57 2.526.451 1.023.409 2.779.409 2.779l.656.215s-.134-1.701.054-2.522a1.54 1.54 0 01.357-.662 8.66 8.66 0 00.815-.645c.018-.019.029-.036.045-.054 1.555-1.418 4.459-4.91 3.463-10.599-1.291-5.56-4.336-7.387-4.663-8.086C12.273.939 11.884 0 11.884 0z"/>
    </symbol>
    <symbol viewBox="0 0 50 50" id="icon-git">
      <path d="M46.793 22.09L27.91 3.207A4.093 4.093 0 0025 2c-1.055 0-2.11.402-2.91 1.207l-3.735 3.734 4.622 4.622a3.994 3.994 0 014.851.609 3.988 3.988 0 01.606 4.848l4.543 4.543a3.994 3.994 0 014.851 6.265 3.994 3.994 0 01-6.266-4.852l-4.542-4.542a3.855 3.855 0 01-1.02.421v12.286A3.99 3.99 0 0129 35c0 2.21-1.79 4-4 4s-4-1.79-4-4a3.99 3.99 0 013-3.86V18.856a3.955 3.955 0 01-1.828-1.027 3.988 3.988 0 01-.606-4.848l-4.625-4.625L3.207 22.09a4.112 4.112 0 000 5.82L22.09 46.793A4.093 4.093 0 0025 48c1.055 0 2.11-.402 2.91-1.207L46.793 27.91a4.112 4.112 0 000-5.82z"/>
    </symbol>
    <symbol viewBox="0 0 50 50" id="icon-github">
      <path d="M17.791 46.836A1.999 1.999 0 0019 45v-5.4c0-.197.016-.402.041-.61A.611.611 0 0119 39h-3.6c-1.5 0-2.8-.6-3.4-1.8-.7-1.3-1-3.5-2.8-4.7-.3-.2-.1-.5.5-.5.6.1 1.9.9 2.7 2 .9 1.1 1.8 2 3.4 2 2.487 0 3.82-.125 4.622-.555C21.356 34.056 22.649 33 24 33v-.025c-5.668-.182-9.289-2.066-10.975-4.975-3.665.042-6.856.405-8.677.707a21.537 21.537 0 01-.151-.987c1.797-.296 4.843-.647 8.345-.714a8.162 8.162 0 01-.291-.849c-3.511-.178-6.541-.039-8.187.097-.02-.332-.047-.663-.051-.999 1.649-.135 4.597-.27 8.018-.111a9.832 9.832 0 01-.13-1.543c0-1.7.6-3.5 1.7-5-.5-1.7-1.2-5.3.2-6.6 2.7 0 4.6 1.3 5.5 2.1C21 13.4 22.9 13 25 13s4 .4 5.6 1.1c.9-.8 2.8-2.1 5.5-2.1 1.5 1.4.7 5 .2 6.6 1.1 1.5 1.7 3.2 1.6 5 0 .484-.045.951-.11 1.409 3.499-.172 6.527-.034 8.204.102-.002.337-.033.666-.051.999-1.671-.138-4.775-.28-8.359-.089a8.272 8.272 0 01-.325.98c3.546.046 6.665.389 8.548.689-.043.332-.093.661-.151.987-1.912-.306-5.171-.664-8.879-.682-1.665 2.878-5.22 4.755-10.777 4.974V33c2.6 0 5 3.9 5 6.6V45c0 .823.498 1.53 1.209 1.836C41.37 43.804 48 35.164 48 25 48 12.318 37.683 2 25 2S2 12.318 2 25c0 10.164 6.63 18.804 15.791 21.836z"/>
    </symbol>
    <symbol viewBox="0 0 50 50" id="icon-postgreesql">
      <path d="M35.2 2.102c-1.5 0-2.802.296-4 .597 2.1.899 3.402 2 4.1 2.5 1.602 1.399 2.5 2.801 4.102 5.102.297.5.797 1.199 1.098 2.297.3 1 .3 1.8.3 2.601 0 1.102-.1 2-.202 2.899-.098.703-.098 1.004-.196 1.203 0 .101 0 .199-.101.398 0 .5 0 .703.101 1.102 0 .398.098.8.098 1.5.102 1.3.102 2.199-.098 3.297V26c-.203.898-.402 1.8-.902 2.598.102.203.2.3.3.5.5-.7.9-1.399 1.298-2.196C42.3 24.7 43 22.801 43.5 21.402c.898-2.601 1.398-4.504 1.7-5.902.698-3 .8-4.398.5-6 0-.5-.2-1.402-.7-2.3-1.102-2-2.8-2.9-4-3.5-.8-.4-2.902-1.5-5.8-1.598zm-21.665.441c-1.152-.023-2.558.105-4.137.855-.5.204-2 .903-3.199 2.5-.8 1-1.398 2.5-1.699 4.2-.3 1.5-.402 3.304.2 6.703.398 2.398.8 4 1.6 7.297.102.402.7 2.203 2 6.203l.098.199c.204.7.801 2.2 2.102 3.7.898 1 1.7 1.6 2.402 1.6h.196c1.3 0 2.203-1 3-1.8 0-.102 1.902-2.398 2.601-3.2-.101-.1-.297-.1-.398-.202-1.2-.7-2.102-1.797-2.801-3-1.2-2.2-1.102-4.399-.902-5.5l.101-1.696c-.398-2.703-.297-5.3.203-7.902.399-2.2.899-4.398 2.696-6.7.601-.8 1.3-1.5 2-2a14.571 14.571 0 00-5-1.198c-.325-.028-.68-.051-1.063-.059zm12.563.855c-.5 0-1 0-1.5.102-2 .398-3.899 1.5-5.399 3.398-1.5 1.903-1.898 3.7-2.297 5.801-.203.801-.203 1.5-.304 2.301.601-.5 1.402-1.102 2.601-1.402.7-.2 2.5-.797 4 .101.5.301 1.2.903 1.899 2.602 1.5 4.199.004 8.5-.196 8.898-.101.399-.3.7-.402.899-.2.5-.398.902-.598 1.703-.101.699-.203 1.3-.203 2 .301 0 .602.097.899.297.5.5.601 1.203.703 1.5.199 1.601.199 3.601.199 5.601 0 1.602 0 3.102.098 4.102.203 2.3.902 3.898 1.902 4.699.7.602 1.598.598 2.098.7h.203c1.5 0 3.898-1 4.797-2.4.5-.8.703-1.5.902-2.5.102-.6.098-.898.2-1.5 0-.3.1-.8.1-1.398 0-.5.098-1.101.2-1.804.102-1.7.398-3.696.5-4.797.102-1.301.7-2.403 1.2-3.102-.7-.101-1.4-.699-1.798-1.699-.601-1.102-.703-1.402-.804-1.902-.098-.399-.297-.899-1-2.399-1.5-3.398-1.696-4.398-1.696-5.199-.101-1.102-.203-2.598 1-3.598 1.797-1.601 4.098-1.5 5.297-1.101v-.203c-.199-.797-.597-1.399-.898-1.797C36.3 9 35.5 7.8 34.098 6.6a14.321 14.321 0 00-4.297-2.5c-1-.3-2.203-.703-3.703-.703zm11.054 11.727c-.726-.05-1.652.074-2.453.777-.398.399-.398 1.2-.297 1.899 0 .5.098 1.199 1.598 4.601.7 1.598.898 2.098 1 2.5.102.399.2.598.8 1.696.102.203.2.402.4.601.198-.3.3-.8.398-1.601l.101-.297c.2-.899.102-1.602.102-2.801 0-.602-.102-1-.102-1.3-.101-.5-.101-.9-.101-1.5-.2-.302-.2-.4-.098-.602 0-.2.098-.496.2-1.098.1-.8.202-1.5.202-2.3-.203-.102-.3-.2-.5-.298 0 0-.527-.226-1.25-.277zm-15.636.395c-.637-.075-1.368.132-1.817.28-1.101.302-1.797 1-2.297 1.4-.3.3-.601.6-.902 1 0 .698.098 1.402.2 2.1v.102l-.2 2c-.2.899-.3 2.598.7 4.297.5 1 1.202 1.801 2.1 2.301.602.398 1.4.7 2.298.902 0-.703.101-1.504.203-2.203.199-1 .398-1.5.699-2.101a3 3 0 01.402-.797c.098-.301 1.496-4.102.196-7.602-.297-.8-.598-1.3-1-1.5a1.47 1.47 0 00-.582-.18zm14.672.57c.261-.016.511.008.613.11.3.198-.102.698-.203.8-.098.102-.297.3-.598.402-.398.098-.7-.203-.8-.203-.102-.101-.4-.398-.298-.699.098-.2.2-.2.598-.3a2.84 2.84 0 01.688-.11zm-15.032.828c.336-.023.617.105.844.18.3.101.598.203.598.402.101.3-.196.5-.297.598-.301.3-.801.304-.801.304-.5 0-.8-.3-1-.601-.102-.102-.2-.301-.098-.5.098-.2.297-.301.399-.301.125-.05.242-.074.355-.082zM39.5 30c-.5.7-1.2 1.602-1.3 2.8 0 .2 0 .302-.102.5.8.2 1.504.2 2.203.102C41.902 33.2 43 32.398 43.199 32.2c.7-.5 1.602-1.5 1.399-1.898-.098-.2-.399-.102-2 0-.399 0-1.598.3-2.399.101H40c-.2-.101-.398-.203-.5-.402zm-17.402 2c-.2.3-.496.5-.696.7-.8.5-1.804.902-2.804 1.1-.899.302-1.399.302-1.399.602-.101.399.899.899 1.399 1.098 1.703.7 3.402.3 3.703.2.199-.102.699-.302 1.199-.602 0-1.098-.098-2.098-.2-2.899v-.101h-.1c-.302 0-.7.004-1.102-.098z"/>
    </symbol>
    <symbol viewBox="0 0 50 50" id="icon-python">
      <path d="M24.5 2C15.8 2 14 6.492 14 9.094V14h10v1H9.094C5.793 15 2 17.602 2 25s3.793 10 7.094 10H15v-6c0-2.2 1.8-4 4-4h12c1.7 0 3-1.3 3-3V9.094C34 5.594 30.7 2 24.5 2zM20 7c1.102 0 2 .898 2 2 0 1.102-.898 2-2 2-1.102 0-2-.898-2-2 0-1.102.898-2 2-2zm15 8v7c0 2.2-1.8 4-4 4H19c-1.7 0-3 1.3-3 3v11.906c0 3.5 3.3 7.094 9.5 7.094 8.7 0 10.5-4.492 10.5-7.094V36H26v-1h14.906C44.207 35 48 32.398 48 25s-3.793-10-7.094-10zm-5 24c1.102 0 2 .898 2 2 0 1.102-.898 2-2 2-1.102 0-2-.898-2-2 0-1.102.898-2 2-2z"/>
    </symbol>
    <symbol viewBox="0 0 50 50" id="icon-r">
      <path d="M42.884 45.532l-8.491-16.034C39.114 27.304 42 22.662 42 17.126 42 8.545 35.625 3 25.758 3H8a1 1 0 00-1 1v42a1 1 0 001 1h7a1 1 0 001-1V31h9.003l8.191 15.468c.174.327.514.532.884.532H42a.998.998 0 00.856-.484.998.998 0 00.028-.984zM25.025 24H16V10h8.84c5.069 0 8.16 2.667 8.16 7.015C33 21.449 30.095 24 25.025 24z"/>
    </symbol>
    <symbol viewBox="0 0 50 50" id="icon-sql">
      <path d="M25.129 21.48c-.813 0-1.215 1.516-1.215 3.418-.016 2.055.344 3.512 1.215 3.512.824 0 1.152-1.457 1.152-3.555 0-1.89-.285-3.375-1.152-3.375zM43.48 4H6.52A2.526 2.526 0 004 6.52v36.96A2.526 2.526 0 006.52 46h36.96A2.526 2.526 0 0046 43.48V6.52A2.526 2.526 0 0043.48 4zM17.883 30.09c-.813 0-1.606-.211-1.938-.406l.285-1.696c.407.227 1.098.39 1.668.39.93 0 1.38-.48 1.38-1.14 0-.734-.45-1.093-1.305-1.648-1.38-.84-1.907-1.906-1.907-2.82 0-1.622 1.082-2.97 3.196-2.97.66 0 1.289.18 1.59.36l-.317 1.695c-.281-.18-.719-.343-1.289-.343-.84 0-1.242.508-1.242 1.047 0 .601.3.918 1.394 1.578 1.336.808 1.829 1.828 1.829 2.894 0 1.844-1.364 3.059-3.344 3.059zm10.23 1.558a20.464 20.464 0 01-2.597-1.32c-.223-.117-.387-.207-.477-.207-1.969 0-3.168-1.906-3.168-5.207 0-2.715 1.098-5.144 3.348-5.144 2.441 0 3.12 2.683 3.12 4.996 0 2.504-.57 4.062-1.519 4.574v.074c.649.285 1.352.512 1.98.75zM34.145 30h-4.563V19.89h1.965v8.446h2.598z"/>
    </symbol>
  </defs>
</svg>