<?xml version="1.0"?><svg fill="#000000" xmlns="http://www.w3.org/2000/svg"  viewBox="0 0 50 50" width="20px" height="20px">    <path d="M42.884,45.532l-8.491-16.034C39.114,27.304,42,22.662,42,17.126C42,8.545,35.625,3,25.758,3H8C7.448,3,7,3.448,7,4v42 c0,0.552,0.448,1,1,1h7c0.552,0,1-0.448,1-1V31h9.003l8.191,15.468C33.368,46.795,33.708,47,34.078,47H42 c0.351,0,0.676-0.184,0.856-0.484C43.038,46.215,43.048,45.842,42.884,45.532z M25.025,24H16V10h8.84c5.069,0,8.16,2.667,8.16,7.015 C33,21.449,30.095,24,25.025,24z"/></svg>